<svg width="13" height="13" viewBox="0 0 13 13" fill="none" xmlns="http://www.w3.org/2000/svg">
<path d="M12.5 6.25C12.5 6.44891 12.421 6.63968 12.2803 6.78033C12.1397 6.92098 11.9489 7 11.75 7H7V11.75C7 11.9489 6.92098 12.1397 6.78033 12.2803C6.63968 12.421 6.44891 12.5 6.25 12.5C6.05109 12.5 5.86032 12.421 5.71967 12.2803C5.57902 12.1397 5.5 11.9489 5.5 11.75V7H0.75C0.551088 7 0.360322 6.92098 0.21967 6.78033C0.0790177 6.63968 0 6.44891 0 6.25C0 6.05109 0.0790177 5.86032 0.21967 5.71967C0.360322 5.57902 0.551088 5.5 0.75 5.5H5.5V0.75C5.5 0.551088 5.57902 0.360322 5.71967 0.21967C5.86032 0.0790177 6.05109 0 6.25 0C6.44891 0 6.63968 0.0790177 6.78033 0.21967C6.92098 0.360322 7 0.551088 7 0.75V5.5H11.75C11.9489 5.5 12.1397 5.57902 12.2803 5.71967C12.421 5.86032 12.5 6.05109 12.5 6.25Z" fill="white"/>
</svg>
